PathFileType	3	(X/Y/Z)	D:\VICON_DB\Goncalves\Pilot01\09-03-2026\bw_sq_140_01.trc
DataRate	CameraRate	NumFrames	NumMarkers	Units	OrigDataRate	OrigDataStartFrame	OrigNumFrames
200.0	200.0	8	34	mm	200.0	799	913	
Frame#	Time	LASI			RASI			LPSI			RPSI			LTHI			LTHAP			LTHAD			LKNE			LKNM			LTIB			LTIAP			LTIAD			LANK			LMED			LHEE			LTOE			LFMH			LSMH			LVMH			RTHI			RTHAP			RTHAD			RKNE			RKNM			RTIB			RTIAP			RTIAD			RANK			RMED			RHEE			RTOE			RFMH			RSMH			RVMH			
		X1	Y1	Z1	X2	Y2	Z2	X3	Y3	Z3	X4	Y4	Z4	X5	Y5	Z5	X6	Y6	Z6	X7	Y7	Z7	X8	Y8	Z8	X9	Y9	Z9	X10	Y10	Z10	X11	Y11	Z11	X12	Y12	Z12	X13	Y13	Z13	X14	Y14	Z14	X15	Y15	Z15	X16	Y16	Z16	X17	Y17	Z17	X18	Y18	Z18	X19	Y19	Z19	X20	Y20	Z20	X21	Y21	Z21	X22	Y22	Z22	X23	Y23	Z23	X24	Y24	Z24	X25	Y25	Z25	X26	Y26	Z26	X27	Y27	Z27	X28	Y28	Z28	X29	Y29	Z29	X30	Y30	Z30	X31	Y31	Z31	X32	Y32	Z32	X33	Y33	Z33	X34	Y34	Z34	
799	3.99	83.613525	863.20258	-1092.238	86.407295	865.57397	-1354.4908				289.55969	899.6604	-1248.6779	112.95036	680.03046	-1007.4075	125.58571	747.93597	-1020.3003	167.25432	625.90668	-974.7439	213.19586	469.83884	-956.74768				261.07715	288.36835	-893.16772	183.88544	352.32632	-937.15894	210.84296	262.92819	-884.0625	269.7709	77.687164	-845.31348				280.05008	56.597672	-910.38611	187.84665	72.675896	-818.99133	125.66002	45.406357	-814.26184				173.09305	24.490797	-748.62018	168.48491	623.07361	-1458.1698	110.08199	736.05908	-1409.7101	97.938896	647.1546	-1426.5206	218.89819	486.314	-1464.4749				252.84601	306.70526	-1531.4805	189.97865	345.74911	-1492.269	194.34657	269.62149	-1520.0332	266.92722	62.902206	-1568.1605				277.4231	54.387009	-1516.8263	181.22833	71.030479	-1608.7418	122.89626	51.280087	-1611.932				169.46753	18.983629	-1669.0295
800	3.995	83.523079	863.20038	-1092.2483	86.367119	865.58319	-1354.5068				289.48721	899.65619	-1248.7092	112.9389	680.02264	-1007.3718	125.54938	747.93567	-1020.2852	167.30066	625.89484	-974.76788	213.28975	469.83908	-956.83038				261.11874	288.36343	-893.24316	183.94397	352.32809	-937.23767	210.88838	262.93329	-884.12543	269.76569	77.693451	-845.33289				280.04605	56.589134	-910.39795	187.83855	72.68486	-819.01117	125.65343	45.39893	-814.26904				173.09076	24.493469	-748.62457	168.47318	623.10736	-1458.1914	110.05405	736.09723	-1409.7446	97.89801	647.18658	-1426.5919	218.88394	486.34244	-1464.4855				252.84225	306.71011	-1531.4774	189.96263	345.7619	-1492.293	194.33243	269.63019	-1520.0582	266.92172	62.90683	-1568.1483				277.40781	54.387154	-1516.8131	181.22899	71.02494	-1608.7479	122.89178	51.28157	-1611.9514				169.47273	18.973057	-1669.0377
801	4	83.429153	863.19507	-1092.26	86.325768	865.5899	-1354.5214				289.40894	899.65271	-1248.7428	112.92722	680.01013	-1007.341	125.51064	747.93127	-1020.2717	167.34473	625.88025	-974.79382	213.38696	469.83835	-956.9137				261.16357	288.3569	-893.32062	184.0052	352.32822	-937.32013	210.9321	262.94049	-884.18597	269.76096	77.699768	-845.35303				280.04184	56.580147	-910.41071	187.83057	72.693176	-819.03137	125.64689	45.391254	-814.27588				173.08902	24.495653	-748.6283	168.45645	623.14301	-1458.2124	110.02134	736.13947	-1409.7793	97.848785	647.21954	-1426.6638	218.86885	486.37567	-1464.4988				252.83867	306.71646	-1531.4764	189.94725	345.77258	-1492.3171	194.31923	269.6395	-1520.0831	266.91739	62.911049	-1568.1373				277.39554	54.391087	-1516.8092	181.23041	71.019135	-1608.755	122.88792	51.282455	-1611.9708				169.4782	18.961926	-1669.0458
802	4.005	83.332008	863.18677	-1092.2726	86.283203	865.5943	-1354.5339				289.32501	899.64948	-1248.7782	112.91486	679.99304	-1007.3153	125.46933	747.9231	-1020.2595	167.38594	625.86279	-974.82153	213.48701	469.83655	-956.99677				261.21176	288.34885	-893.39917	184.06903	352.32669	-937.40552	210.97417	262.94971	-884.24384	269.75696	77.705971	-845.37366				280.03763	56.570904	-910.42419	187.82303	72.700714	-819.05176	125.64048	45.383415	-814.28217				173.08791	24.497282	-748.63129	168.43263	623.18042	-1458.2316	109.98249	736.18591	-1409.8136	97.789589	647.25232	-1426.7349	218.85208	486.41391	-1464.5144				252.83464	306.72443	-1531.4775	189.93228	345.7814	-1492.3405	194.30669	269.64911	-1520.1075	266.91412	62.91502	-1568.1277				277.38632	54.398361	-1516.8137	181.23257	71.013184	-1608.7629	122.8848	51.282604	-1611.99				169.4839	18.950144	-1669.054
803	4.01	83.231987	863.17542	-1092.2858	86.239372	865.59644	-1354.5436				289.23596	899.64594	-1248.8151	112.90128	679.97144	-1007.2938	125.4254	747.91113	-1020.2479	167.42377	625.84265	-974.85034	213.58939	469.83392	-957.0788				261.26324	288.33963	-893.47797	184.13557	352.32379	-937.49268	211.0148	262.96075	-884.29871	269.75366	77.711998	-845.39435				280.03357	56.561569	-910.43811	187.81638	72.707504	-819.07208	125.63435	45.375549	-814.28809				173.08748	24.498318	-748.63342	168.39969	623.21881	-1458.2478	109.9361	736.23621	-1409.8467	97.718773	647.28412	-1426.8025	218.83292	486.45718	-1464.5323				252.82957	306.73413	-1531.4808	189.91759	345.78851	-1492.3623	194.29446	269.65891	-1520.1304	266.91205	62.918938	-1568.1195				277.37988	54.408176	-1516.825	181.23543	71.007164	-1608.7721	122.88246	51.281948	-1612.0084				169.4899	18.937698	-1669.0619
804	4.015	83.129402	863.16119	-1092.2987	86.194229	865.59619	-1354.5496				289.14236	899.64105	-1248.8525	112.88593	679.94586	-1007.2759	125.37888	747.896	-1020.2368	167.45784	625.82013	-974.87976	213.6935	469.83044	-957.15906				261.31778	288.32962	-893.55597	184.2049	352.32013	-937.58014	211.05426	262.97336	-884.35046	269.75122	77.717827	-845.41486				280.02975	56.552315	-910.45227	187.81113	72.713707	-819.09192	125.62862	45.367798	-814.29327				173.08769	24.498768	-748.63464	168.35558	623.25781	-1458.26	109.88079	736.2901	-1409.8774	97.634789	647.31348	-1426.8651	218.81044	486.50525	-1464.5527				252.823	306.74557	-1531.4863	189.90302	345.79401	-1492.382	194.28232	269.66855	-1520.1517	266.91101	62.922993	-1568.113				277.37598	54.419598	-1516.8407	181.23897	71.001259	-1608.7821	122.88097	51.280464	-1612.0266				169.4962	18.924623	-1669.0696
805	4.02	83.024689	863.14435	-1092.3113	86.147667	865.59375	-1354.5514				289.04498	899.63373	-1248.8904	112.86848	679.91681	-1007.261	125.32983	747.87811	-1020.2252	167.48778	625.79553	-974.90912	213.79875	469.82635	-957.23651				261.37494	288.31934	-893.63226	184.27711	352.31641	-937.66656	211.09299	262.98727	-884.39929	269.74973	77.723495	-845.43481				280.02631	56.543251	-910.46643	187.80765	72.719612	-819.11096	125.62342	45.360325	-814.29785				173.08859	24.498678	-748.63489	168.29834	623.29663	-1458.2671	109.81519	736.34668	-1409.9049	97.536133	647.33942	-1426.9207	218.78375	486.55765	-1464.5753				252.81441	306.75867	-1531.4935	189.88834	345.79807	-1492.3988	194.26999	269.67798	-1520.1705	266.91098	62.927349	-1568.1082				277.37415	54.431641	-1516.8586	181.243	70.995697	-1608.7928	122.88033	51.278175	-1612.0437				169.50272	18.911016	-1669.0769
806	4.025	82.918396	863.12494	-1092.323	86.099564	865.58905	-1354.549				288.94452	899.62292	-1248.9283	112.84897	679.88446	-1007.2487	125.27849	747.85803	-1020.2126	167.51346	625.76935	-974.93787	213.9044	469.82175	-957.31067				261.43414	288.30939	-893.70569	184.35249	352.31372	-937.75043	211.13155	263.00211	-884.44513	269.74918	77.72908	-845.45367				280.02359	56.534466	-910.48016	187.8063	72.725471	-819.12885	125.61887	45.35326	-814.30176				173.09024	24.498112	-748.63416	168.2262	623.33423	-1458.2673	109.73803	736.40515	-1409.9287	97.421547	647.36066	-1426.9673	218.75188	486.6138	-1464.5995				252.80342	306.77335	-1531.5026	189.87321	345.8009	-1492.4125	194.25716	269.68689	-1520.1865	266.91177	62.932148	-1568.1052				277.37405	54.443394	-1516.877	181.24739	70.990692	-1608.8044	122.88055	51.275101	-1612.0603				169.50946	18.897013	-1669.084
